<svg width="138" height="33" viewBox="0 0 138 33" fill="none" xmlns="http://www.w3.org/2000/svg">
<path d="M39.5809 10.6867H28.5597C27.1886 10.7112 25.8831 11.2779 24.9287 12.2626C23.9744 13.2474 23.449 14.57 23.4675 15.9412V26.8494C23.4461 28.2224 23.9702 29.5478 24.9249 30.5347C25.8795 31.5217 27.1868 32.0896 28.5597 32.1138H39.5787C40.9514 32.089 42.2583 31.5209 43.2128 30.5341C44.1674 29.5473 44.6917 28.2222 44.6709 26.8494V15.9292C44.6867 14.5603 44.1604 13.2407 43.2068 12.2585C42.2531 11.2763 40.9496 10.7112 39.5809 10.6867ZM41.4453 17.401V25.4818C41.4597 26.3689 41.1212 27.2254 40.5042 27.863C39.8872 28.5006 39.0422 28.867 38.1551 28.8817H29.9679C29.0811 28.8661 28.2366 28.4994 27.6198 27.8621C27.003 27.2247 26.6642 26.3687 26.6777 25.4818V17.401C26.6633 16.5139 27.0018 15.6574 27.6188 15.0198C28.2358 14.3822 29.0808 14.0158 29.9679 14.0011H38.1551C39.0425 14.0161 39.8877 14.3825 40.5054 15.0198C41.123 15.6572 41.4626 16.5135 41.4497 17.401H41.4453Z" fill="#8E9097"/>
<path d="M62.9811 10.6867H51.9105C50.5394 10.7112 49.2339 11.2779 48.2796 12.2626C47.3252 13.2474 46.7998 14.57 46.8183 15.9412V26.8494C46.7969 28.2224 47.321 29.5478 48.2757 30.5347C49.2304 31.5217 50.5376 32.0896 51.9105 32.1138H62.9811C64.3538 32.089 65.6607 31.5209 66.6152 30.5341C67.5698 29.5473 68.0941 28.2222 68.0733 26.8494V15.9292C68.0891 14.5599 67.5625 13.24 66.6084 12.2577C65.6543 11.2755 64.3502 10.7107 62.9811 10.6867ZM64.8455 17.401V25.4818C64.8599 26.3689 64.5214 27.2254 63.9044 27.863C63.2874 28.5006 62.4424 28.867 61.5553 28.8817H53.3681C52.4865 28.8579 51.6499 28.4876 51.0394 27.8513C50.4288 27.2149 50.0936 26.3636 50.1064 25.4818V17.401C50.092 16.5139 50.4305 15.6574 51.0475 15.0198C51.6645 14.3822 52.5095 14.0158 53.3966 14.0011H61.5838C62.4661 14.0238 63.3039 14.3935 63.9154 15.03C64.5268 15.6665 64.8626 16.5185 64.8499 17.401H64.8455Z" fill="#8E9097"/>
<path d="M109.548 10.6867H98.486C97.1149 10.7112 95.8094 11.2779 94.855 12.2626C93.9007 13.2474 93.3753 14.57 93.3938 15.9412V26.8494C93.375 28.2207 93.9003 29.5435 94.8547 30.5284C95.8091 31.5132 97.1148 32.0797 98.486 32.104H109.548C110.919 32.0794 112.224 31.5128 113.179 30.528C114.133 29.5433 114.658 28.2206 114.64 26.8494V15.9292C114.655 14.56 114.128 13.2405 113.174 12.2583C112.22 11.2762 110.917 10.7112 109.548 10.6867ZM111.412 17.401V25.4818C111.426 26.3688 111.088 27.2252 110.471 27.8627C109.854 28.5002 109.009 28.8667 108.122 28.8817H99.9425C99.0556 28.8661 98.2112 28.4994 97.5944 27.8621C96.9776 27.2247 96.6387 26.3687 96.6522 25.4818V17.401C96.6379 16.5139 96.9764 15.6574 97.5934 15.0198C98.2104 14.3822 99.0554 14.0158 99.9425 14.0011H108.13C109.016 14.0181 109.859 14.3853 110.475 15.0225C111.091 15.6597 111.43 16.5148 111.417 17.401H111.412Z" fill="#8E9097"/>
<path d="M132.91 10.6867H121.846C120.474 10.7109 119.169 11.2775 118.214 12.2623C117.26 13.2471 116.735 14.57 116.753 15.9412V26.8494C116.735 28.2207 117.26 29.5435 118.214 30.5284C119.169 31.5132 120.474 32.0797 121.846 32.104H132.907C134.278 32.0794 135.584 31.5128 136.538 30.528C137.493 29.5433 138.018 28.2206 138 26.8494V15.9292C138.015 14.5603 137.489 13.2407 136.535 12.2585C135.582 11.2763 134.278 10.7112 132.91 10.6867ZM134.774 17.401V25.4818C134.788 26.3689 134.45 27.2254 133.833 27.863C133.216 28.5006 132.371 28.867 131.484 28.8817H123.304C122.417 28.8661 121.573 28.4994 120.956 27.8621C120.339 27.2247 120.001 26.3687 120.014 25.4818V17.401C120 16.5139 120.338 15.6574 120.955 15.0198C121.572 14.3822 122.417 14.0158 123.304 14.0011H131.497C132.384 14.0167 133.228 14.3834 133.845 15.0207C134.462 15.6581 134.801 16.5141 134.787 17.401H134.774Z" fill="#8E9097"/>
<path d="M16.0908 10.6867H5.02906C4.41309 10.6918 3.80361 10.8131 3.23259 11.0442V0H0.000486855V26.8582C-0.018295 28.2295 0.50701 29.5523 1.4614 30.5371C2.41579 31.5219 3.7215 32.0885 5.09267 32.1127H16.0908C17.4636 32.0879 18.7704 31.5198 19.725 30.533C20.6795 29.5462 21.2039 28.2211 21.183 26.8483V15.9324C21.1998 14.5626 20.6735 13.2418 19.7193 12.2589C18.7651 11.2759 17.4606 10.7106 16.0908 10.6867ZM17.9553 17.401V25.4818C17.9697 26.3689 17.6311 27.2254 17.0141 27.863C16.3971 28.5006 15.5522 28.867 14.6651 28.8817H6.47238C5.58555 28.8661 4.74111 28.4994 4.12429 27.862C3.50747 27.2247 3.16865 26.3687 3.18215 25.4818V17.401C3.18196 16.5219 3.52639 15.6777 4.14152 15.0497C4.75665 14.4216 5.59346 14.0597 6.47238 14.0416H14.6596C15.5404 14.0566 16.3801 14.4172 16.9974 15.0456C17.6148 15.6741 17.9604 16.52 17.9597 17.401H17.9553Z" fill="#8E9097"/>
<path d="M86.2836 10.7854H75.2558C74.6398 10.7906 74.0304 10.9119 73.4594 11.1429V0.110779H70.2272V32.15H73.4594V31.8649C73.4594 30.5707 73.3957 17.5973 73.3957 17.4975C73.3956 16.6184 73.74 15.7742 74.3551 15.1462C74.9702 14.5181 75.8071 14.1562 76.686 14.1382H84.8732C85.76 14.1537 86.6045 14.5204 87.2213 15.1578C87.8381 15.7952 88.1769 16.6512 88.1634 17.5381V32.1796H91.4164V16.0728C91.4308 15.3925 91.311 14.7161 91.0639 14.0821C90.8168 13.4481 90.4473 12.869 89.9763 12.3779C89.5054 11.8868 88.9423 11.4933 88.3192 11.2199C87.6961 10.9464 87.0253 10.7984 86.345 10.7843L86.2836 10.7854Z" fill="#8E9097"/>
</svg>
