<svg width="138" height="23" viewBox="0 0 138 23" fill="none" xmlns="http://www.w3.org/2000/svg">
<path d="M54.0333 2.12351C54.0348 1.56076 54.2589 1.02148 54.6569 0.623557C55.0548 0.225635 55.5941 0.00144541 56.1569 0C56.7196 0.00144541 57.2589 0.225635 57.6568 0.623557C58.0547 1.02148 58.2789 1.56076 58.2803 2.12351C58.2787 2.6861 58.0544 3.22514 57.6565 3.62287C57.2586 4.0206 56.7194 4.24466 56.1569 4.24611C55.5943 4.24466 55.0551 4.0206 54.6572 3.62287C54.2593 3.22514 54.035 2.6861 54.0333 2.12351Z" fill="#8E9097"/>
<path d="M87.1535 16.0308C87.1549 15.4681 87.3791 14.9288 87.777 14.5308C88.175 14.1329 88.7143 13.9087 89.277 13.9073C89.8396 13.909 90.3786 14.1333 90.7764 14.5312C91.1741 14.9291 91.3982 15.4682 91.3996 16.0308C91.3979 16.5932 91.1737 17.1321 90.776 17.5298C90.3783 17.9275 89.8395 18.1517 89.277 18.1534C88.996 18.1616 88.7163 18.1123 88.455 18.0085C88.1937 17.9048 87.9564 17.7487 87.7575 17.55C87.5587 17.3513 87.4026 17.114 87.2987 16.8527C87.1948 16.5915 87.1454 16.3118 87.1535 16.0308Z" fill="#8E9097"/>
<path d="M19.6401 15.1803C17.8351 15.1803 16.5621 13.8005 16.5621 11.677C16.5621 9.66025 17.8396 8.1737 19.6401 8.1737C21.4406 8.1737 22.7182 9.55348 22.7182 11.677C22.7182 13.8005 21.551 15.1803 19.6401 15.1803ZM19.6401 5.09566C18.7674 5.06426 17.8975 5.21301 17.0849 5.53264C16.2722 5.85227 15.5341 6.33592 14.9165 6.95343C14.299 7.57093 13.8154 8.30905 13.4957 9.12175C13.1761 9.93444 13.0274 10.8043 13.0588 11.677C13.0274 12.5497 13.1761 13.4195 13.4957 14.2322C13.8154 15.0449 14.299 15.783 14.9165 16.4006C15.5341 17.0181 16.2722 17.5017 17.0849 17.8213C17.8975 18.141 18.7674 18.2897 19.6401 18.2583C20.5128 18.2897 21.3827 18.141 22.1954 17.8213C23.008 17.5017 23.7462 17.0181 24.3637 16.4006C24.9812 15.783 25.4648 15.0449 25.7845 14.2322C26.1041 13.4195 26.2529 12.5497 26.2215 11.677C26.2529 10.8043 26.1041 9.93444 25.7845 9.12175C25.4648 8.30905 24.9812 7.57093 24.3637 6.95343C23.7462 6.33592 23.008 5.85227 22.1954 5.53264C21.3827 5.21301 20.5128 5.06426 19.6401 5.09566Z" fill="#8E9097"/>
<path d="M49.9998 11.9964C49.8857 11.7094 49.7034 11.4544 49.4687 11.2536L49.3628 11.1477L49.4687 11.0419C49.6813 10.8293 49.7872 10.6176 49.9998 10.4031L53.3964 5.41418H49.3628L46.815 9.33816C46.7082 9.55078 46.3907 9.65664 45.9654 9.65664H45.4343V2.22573C45.4343 0.739178 44.4789 0.527466 43.5234 0.527466H41.8252V18.043H45.4343V12.8414H45.7528C46.1771 12.8414 46.4956 12.8414 46.6024 13.1599L48.6191 16.9817C48.7871 17.3892 49.0891 17.727 49.4753 17.9395C49.8614 18.1519 50.3086 18.2261 50.7426 18.1498H53.5022L51.4855 14.7532L49.9989 11.9937" fill="#8E9097"/>
<path d="M67.6212 5.09662C66.2402 5.1082 64.9141 5.63886 63.9062 6.58316L63.6936 6.79579L63.5878 6.47731C63.4701 6.1028 63.2254 5.78114 62.8958 5.56787C62.5663 5.3546 62.1725 5.26313 61.7827 5.30924H60.1903V17.9417H63.7995V12.1014C63.8105 11.5991 63.8818 11.1 64.0121 10.6148C64.1705 9.97556 64.5393 9.40814 65.0592 9.0038C65.5791 8.59946 66.2198 8.38167 66.8784 8.38545C68.0455 8.38545 68.4708 9.02424 68.4708 10.5081V16.1339C68.4337 16.3935 68.4576 16.6581 68.5406 16.9069C68.6235 17.1556 68.7632 17.3816 68.9486 17.567C69.134 17.7524 69.36 17.8921 69.6087 17.9751C69.8575 18.058 70.1222 18.0819 70.3817 18.0448H72.0799V9.97877C72.0799 6.79396 70.4876 5.0957 67.6212 5.0957" fill="#8E9097"/>
<path d="M56.1568 5.41508H54.4586V15.1794V18.0457H58.0632V7.32597C58.1002 7.0664 58.0763 6.80177 57.9934 6.55303C57.9104 6.30429 57.7708 6.07827 57.5854 5.89287C57.4 5.70746 57.1739 5.56777 56.9252 5.48484C56.6764 5.40191 56.4118 5.37803 56.1523 5.41508" fill="#8E9097"/>
<path d="M33.7582 15.1803C31.9541 15.1803 30.6802 13.8005 30.6802 11.677C30.6802 9.66026 31.9577 8.17372 33.7582 8.17372C35.5587 8.17372 36.8372 9.5535 36.8372 11.677C36.943 13.8014 35.6691 15.1803 33.7582 15.1803ZM33.7582 5.09568C32.8855 5.06427 32.0157 5.21302 31.203 5.53265C30.3903 5.85228 29.6522 6.33593 29.0346 6.95344C28.4171 7.57095 27.9335 8.30907 27.6139 9.12176C27.2942 9.93445 27.1455 10.8043 27.1769 11.677C27.1455 12.5497 27.2942 13.4196 27.6139 14.2323C27.9335 15.0449 28.4171 15.7831 29.0346 16.4006C29.6522 17.0181 30.3903 17.5017 31.203 17.8214C32.0157 18.141 32.8855 18.2897 33.7582 18.2583C34.6309 18.2897 35.5008 18.141 36.3135 17.8214C37.1261 17.5017 37.8643 17.0181 38.4818 16.4006C39.0993 15.7831 39.5829 15.0449 39.9026 14.2323C40.2222 13.4196 40.371 12.5497 40.3396 11.677C40.3801 10.802 40.2376 9.92809 39.9212 9.11125C39.6048 8.29441 39.1215 7.55257 38.5021 6.93316C37.8827 6.31375 37.1408 5.8304 36.324 5.514C35.5071 5.19761 34.6332 5.05513 33.7582 5.09568Z" fill="#8E9097"/>
<path d="M110.932 15.1803C109.127 15.1803 107.853 13.8005 107.853 11.677C107.853 9.66025 109.131 8.1737 110.932 8.1737C112.733 8.1737 114.01 9.55348 114.01 11.677C114.01 13.8005 112.843 15.1803 110.932 15.1803ZM110.932 5.09567C110.059 5.06425 109.189 5.21303 108.376 5.53271C107.564 5.8524 106.826 6.33613 106.208 6.95374C105.59 7.57135 105.107 8.30957 104.787 9.12238C104.468 9.93517 104.319 10.8051 104.351 11.6779C104.319 12.5506 104.468 13.4205 104.788 14.2332C105.107 15.0458 105.591 15.784 106.208 16.4015C106.826 17.019 107.564 17.5026 108.377 17.8223C109.189 18.1419 110.059 18.2906 110.932 18.2592C111.805 18.2906 112.674 18.1419 113.487 17.8223C114.3 17.5026 115.038 17.019 115.655 16.4015C116.273 15.784 116.757 15.0458 117.076 14.2332C117.396 13.4205 117.545 12.5506 117.513 11.6779C117.545 10.8052 117.396 9.93535 117.076 9.12266C116.757 8.30997 116.273 7.57185 115.655 6.95434C115.038 6.33683 114.3 5.85318 113.487 5.53355C112.674 5.21392 111.805 5.06517 110.932 5.09658" fill="#8E9097"/>
<path d="M79.7226 14.6504C77.7058 14.6504 77.0688 12.9521 77.0688 11.3597C77.0688 10.6169 77.2815 8.38756 79.5099 8.38756C80.678 8.38756 82.1636 8.70604 82.1636 11.5724C82.1645 14.0134 80.7848 14.6504 79.7226 14.6504ZM84.0745 5.41538C83.7861 5.41524 83.5015 5.48229 83.2435 5.61123C82.9855 5.74016 82.7611 5.92744 82.588 6.1582L82.4821 6.37082L82.2695 6.26497C81.3526 5.49624 80.1721 5.11549 78.9788 5.20367C75.5823 5.20367 73.353 7.75151 73.353 11.4665C73.353 15.1815 75.6882 17.8352 79.0856 17.8352C80.0738 17.863 81.0437 17.5644 81.8451 16.9856L82.1636 16.773V17.0915C82.1636 18.7897 81.1023 19.7452 79.0856 19.7452C78.2544 19.7355 77.4302 19.5922 76.6445 19.3209C76.4994 19.2564 76.3418 19.2248 76.183 19.2284C76.0242 19.232 75.8682 19.2707 75.7261 19.3417C75.584 19.4127 75.4594 19.5142 75.3611 19.6391C75.2629 19.7639 75.1936 19.9089 75.158 20.0637L74.8395 20.7025L74.4152 21.7638L74.6278 21.8696C75.9811 22.5433 77.4682 22.9053 78.9797 22.9291C82.0578 22.9291 85.6669 21.3367 85.6669 16.9847V5.41538H84.0745Z" fill="#8E9097"/>
<path d="M6.26466 15.0719H3.29252V11.5686C3.2692 11.4217 3.27554 11.2716 3.31123 11.1272C3.34693 10.9828 3.41125 10.8471 3.50033 10.728C3.58941 10.6088 3.70147 10.5088 3.82989 10.4338C3.95831 10.3587 4.10046 10.3102 4.24796 10.291H6.26466C6.57751 10.2668 6.89191 10.3105 7.18624 10.4193C7.48057 10.5281 7.74786 10.6993 7.96974 10.9212C8.19162 11.1431 8.36285 11.4104 8.47163 11.7047C8.58041 11.999 8.62416 12.3134 8.5999 12.6262C8.63511 12.9463 8.59979 13.2702 8.49642 13.5751C8.39304 13.8801 8.22412 14.1587 8.00154 14.3913C7.77896 14.624 7.50813 14.8051 7.20807 14.9219C6.90801 15.0387 6.58597 15.0883 6.26466 15.0673V15.0719ZM3.29252 5.62697V4.66879C3.29252 3.8192 3.61097 3.50072 4.35378 3.39122H5.84036C6.11188 3.36421 6.38601 3.39782 6.64296 3.48963C6.89992 3.58143 7.13326 3.72913 7.32621 3.92207C7.51915 4.11502 7.6669 4.34839 7.7587 4.60535C7.8505 4.8623 7.88407 5.13643 7.85706 5.40796C7.87939 5.68337 7.84341 5.96039 7.7514 6.22093C7.65939 6.48148 7.51347 6.71968 7.32314 6.92C7.13282 7.12031 6.90236 7.27823 6.64686 7.38344C6.39136 7.48864 6.11655 7.53877 5.84036 7.53055H3.18664L3.29252 5.61967V5.62697ZM9.9797 9.02349L9.44857 8.70501L9.87293 8.28067C10.3523 7.87936 10.735 7.37503 10.9923 6.80527C11.2497 6.23551 11.3752 5.61501 11.3594 4.99001C11.3594 2.23045 9.23596 0.427246 5.94529 0.427246H1.80411C1.3299 0.441246 0.878987 0.63594 0.54361 0.971486C0.208234 1.30703 0.0137604 1.75806 0 2.23228V17.9428H6.05023C9.76523 17.9428 12.1005 15.926 12.1005 12.8471C12.1045 12.0813 11.9112 11.3274 11.5393 10.6581C11.1674 9.98868 10.6293 9.42637 9.97697 9.02532" fill="#8E9097"/>
<path d="M133.645 5.20245C132.904 5.20623 132.174 5.38056 131.511 5.71193C130.849 6.04331 130.271 6.52283 129.824 7.11333L129.611 7.43182L129.398 7.11333C129.061 6.52224 128.562 6.03895 127.961 5.71948C127.36 5.40001 126.681 5.25745 126.002 5.30831C125.381 5.31916 124.769 5.4566 124.203 5.71221C123.637 5.96782 123.13 6.33622 122.711 6.79485L122.393 7.11333L122.287 6.58223C122.074 5.83941 121.437 5.52093 120.482 5.52093H118.999V18.0466H122.395V12.5257C122.414 12.0241 122.485 11.5258 122.608 11.0391C122.926 9.65936 123.886 8.27958 125.368 8.38543C126.323 8.49129 126.747 9.23502 126.747 10.6148V18.0457H130.251V12.5257C130.254 12.0228 130.325 11.5227 130.463 11.0391C130.782 9.76156 131.631 8.49129 133.117 8.49129C134.178 8.49129 134.603 9.13008 134.603 10.7207V16.1348C134.603 17.4124 135.134 17.9399 136.408 17.9399H138V9.87198C137.787 6.79394 136.408 5.20154 133.648 5.20154" fill="#8E9097"/>
<path d="M102.333 13.6947C101.434 14.623 100.225 15.1895 98.9364 15.2871C98.4624 15.3228 97.9861 15.2576 97.5391 15.0956C97.0922 14.9336 96.6846 14.6787 96.3435 14.3476C96.0024 14.0164 95.7354 13.6167 95.5602 13.1747C95.385 12.7328 95.3056 12.2587 95.3273 11.7838C95.2907 11.3185 95.3518 10.8507 95.5067 10.4105C95.6615 9.97025 95.9068 9.56725 96.2266 9.22739C96.5464 8.88752 96.9338 8.6183 97.3639 8.437C97.7939 8.2557 98.2571 8.16633 98.7238 8.17464C99.3625 8.17464 100.104 8.38727 100.21 8.81343V8.91928C100.289 9.19663 100.457 9.44041 100.688 9.61306C100.918 9.78571 101.2 9.87766 101.488 9.87473H103.399V8.17647C103.399 6.05387 100.639 5.20428 98.7283 5.20428C94.8043 5.20428 91.8285 7.96384 91.8285 11.7856C91.8123 12.6725 91.9785 13.5533 92.317 14.3732C92.6555 15.1931 93.1589 15.9347 93.7961 16.5519C94.4332 17.1691 95.1904 17.6487 96.0207 17.9609C96.851 18.2732 97.7366 18.4114 98.6225 18.3669C99.6117 18.3721 100.592 18.1773 101.504 17.7942C102.416 17.4111 103.241 16.8476 103.93 16.1376L104.036 16.0317L102.546 13.5888L102.334 13.6947" fill="#8E9097"/>
</svg>
