<svg width="138" height="37" viewBox="0 0 138 37" fill="none" xmlns="http://www.w3.org/2000/svg">
<path d="M50.4091 27.6804H53.543L53.0375 25.2554V10.7105H50.0071V17.3766C49.5546 16.8591 48.9948 16.4464 48.3666 16.1672C47.7383 15.8881 47.0568 15.7492 46.3694 15.7602C43.339 15.7602 41.0156 18.286 41.0156 21.9218C41.0156 25.5576 43.339 28.0834 46.3694 28.0834C47.0818 28.0991 47.7884 27.9526 48.4359 27.6551C49.0834 27.3577 49.6547 26.9169 50.1069 26.3662L50.41 27.6795L50.4091 27.6804ZM109.905 18.8923C110.512 18.9044 111.105 19.0786 111.622 19.3969L113.036 16.1641C112.363 15.7648 111.595 15.5553 110.813 15.5578C110.173 15.5456 109.54 15.6969 108.975 15.9973C108.409 16.2978 107.93 16.7375 107.581 17.275L107.278 15.7602H104.147L104.653 18.0837V27.5788H107.683V20.1039C107.922 19.7316 108.251 19.4254 108.639 19.2135C109.027 19.0016 109.462 18.8909 109.905 18.8914V18.8923ZM118.794 24.7508C118.399 24.7698 118.005 24.7078 117.635 24.5686C117.266 24.4294 116.929 24.216 116.645 23.9415C116.361 23.667 116.136 23.3372 115.984 22.9725C115.833 22.6079 115.758 22.216 115.763 21.8211C115.743 21.2173 115.903 20.6212 116.224 20.1092C116.544 19.5972 117.011 19.1926 117.563 18.9473C118.115 18.7021 118.727 18.6273 119.322 18.7326C119.917 18.8379 120.467 19.1185 120.901 19.5384C121.336 19.9583 121.635 20.4983 121.76 21.0893C121.885 21.6803 121.831 22.2952 121.605 22.8552C121.378 23.4153 120.99 23.8949 120.489 24.2326C119.988 24.5704 119.398 24.7508 118.794 24.7508ZM44.046 21.8211C44.0256 21.2173 44.1859 20.6212 44.5065 20.1092C44.8271 19.5972 45.2934 19.1926 45.8455 18.9473C46.3976 18.7021 47.0103 18.6273 47.6052 18.7326C48.2 18.8379 48.7499 19.1185 49.1842 19.5384C49.6185 19.9583 49.9175 20.4983 50.0429 21.0893C50.1682 21.6803 50.1142 22.2952 49.8877 22.8552C49.6613 23.4153 49.2727 23.8949 48.7718 24.2326C48.2709 24.5704 47.6806 24.7508 47.0765 24.7508C46.6782 24.7867 46.2768 24.7365 45.8996 24.6035C45.5224 24.4705 45.1783 24.2578 44.8907 23.9799C44.6031 23.702 44.3787 23.3655 44.2328 22.9931C44.0868 22.6207 44.0229 22.2213 44.0451 21.822L44.046 21.8211ZM132.127 24.7508C131.732 24.7698 131.338 24.7078 130.969 24.5686C130.599 24.4294 130.262 24.216 129.978 23.9415C129.694 23.667 129.469 23.3372 129.318 22.9725C129.166 22.6079 129.091 22.216 129.096 21.8211C129.076 21.2173 129.236 20.6212 129.557 20.1092C129.878 19.5972 130.344 19.1926 130.896 18.9473C131.448 18.7021 132.061 18.6273 132.656 18.7326C133.25 18.8379 133.8 19.1185 134.235 19.5384C134.669 19.9583 134.968 20.4983 135.093 21.0893C135.219 21.6803 135.165 22.2952 134.938 22.8552C134.712 23.4153 134.323 23.8949 133.822 24.2326C133.321 24.5704 132.731 24.7508 132.127 24.7508ZM60.9144 18.6881C61.5788 18.6155 62.2464 18.7923 62.7877 19.1843C63.3291 19.5762 63.7055 20.1552 63.8441 20.8091H58.0854C58.2003 20.163 58.5562 19.5846 59.0811 19.1909C59.6061 18.7971 60.261 18.6174 60.9134 18.6881H60.9144ZM96.8737 18.6881C97.5381 18.6153 98.2058 18.792 98.7472 19.184C99.2886 19.576 99.665 20.1551 99.8033 20.8091H94.0457C94.1605 20.163 94.5164 19.5846 95.0413 19.1909C95.5663 18.7971 96.2212 18.6174 96.8737 18.6881ZM82.2299 27.6777H87.0801L90.2112 15.8591H86.9784L84.655 25.3542L82.3316 15.8591H79.0996L82.2308 27.6777H82.2299ZM74.4519 27.6777H77.4823V15.86H74.4519V27.6777ZM61.321 27.88C62.991 27.864 64.6278 27.4113 66.0686 26.5668L64.9577 23.9402C63.8743 24.535 62.6587 24.8478 61.4227 24.8496C59.8063 24.8496 58.6954 24.2434 58.2915 23.1325H66.7793C66.8667 22.6665 66.9006 22.1921 66.8801 21.7185C66.9262 20.9276 66.8078 20.1357 66.5325 19.3928C66.2571 18.65 65.8307 17.9723 65.2801 17.4026C64.7296 16.8329 64.0669 16.3835 63.334 16.0829C62.601 15.7822 61.8136 15.6368 61.0216 15.6558C57.5873 15.6558 55.1632 18.0808 55.1632 21.8173C55.0615 25.455 57.5883 27.88 61.3248 27.88H61.321ZM137.991 21.8173C137.952 20.6471 137.569 19.5143 136.891 18.5601C136.212 17.6059 135.268 16.8727 134.175 16.4518C133.082 16.0308 131.89 15.9409 130.747 16.1931C129.603 16.4454 128.559 17.0287 127.745 17.8703C126.931 18.7118 126.383 19.7744 126.169 20.9256C125.955 22.0767 126.084 23.2654 126.541 24.3434C126.998 25.4214 127.763 26.341 128.739 26.9875C129.715 27.634 130.86 27.9788 132.031 27.9789C132.836 27.997 133.636 27.8484 134.38 27.5425C135.125 27.2366 135.798 26.78 136.358 26.2013C136.918 25.6227 137.352 24.9345 137.633 24.18C137.914 23.4256 138.036 22.6212 137.991 21.8173ZM97.2841 27.88C98.9541 27.8641 100.591 27.4113 102.032 26.5668L100.921 23.9402C99.8373 24.535 98.6217 24.8478 97.3857 24.8496C95.7693 24.8496 94.6585 24.2434 94.2546 23.1325H102.742C102.83 22.6665 102.864 22.1921 102.843 21.7185C102.889 20.9276 102.771 20.1357 102.496 19.3928C102.22 18.65 101.794 17.9723 101.243 17.4026C100.693 16.8329 100.03 16.3835 99.297 16.0829C98.564 15.7822 97.7767 15.6368 96.9847 15.6558C93.5504 15.6558 91.1262 18.0808 91.1262 21.8173C91.0255 25.5548 93.4496 27.88 97.2878 27.88H97.2841ZM118.799 27.88C120.027 27.9209 121.238 27.5943 122.279 26.942C123.32 26.2897 124.142 25.3415 124.64 24.2189C125.138 23.0963 125.289 21.8506 125.075 20.6413C124.86 19.432 124.29 18.3144 123.436 17.4317C122.582 16.5489 121.484 15.9413 120.282 15.6868C119.081 15.4322 117.831 15.5422 116.692 16.0028C115.554 16.4634 114.579 17.2535 113.892 18.2718C113.206 19.2902 112.839 20.4903 112.839 21.7185C112.839 25.4559 115.364 27.88 118.799 27.88ZM68.7987 27.6777H71.8244V10.7105H68.7931V27.6804L68.7987 27.6777ZM75.9704 14.2464C76.35 14.2464 76.7212 14.1338 77.0368 13.9229C77.3525 13.712 77.5985 13.4122 77.7438 13.0615C77.8891 12.7107 77.9271 12.3248 77.853 11.9524C77.7789 11.58 77.5961 11.238 77.3277 10.9696C77.0592 10.7011 76.7172 10.5183 76.3448 10.4442C75.9725 10.3701 75.5866 10.4082 75.2358 10.5535C74.8851 10.6987 74.5852 10.9448 74.3743 11.2604C74.1634 11.5761 74.0508 11.9472 74.0508 12.3269C74.0421 12.5813 74.0858 12.8348 74.1792 13.0717C74.2725 13.3085 74.4136 13.5236 74.5937 13.7036C74.7737 13.8836 74.9888 14.0247 75.2256 14.1181C75.4625 14.2114 75.7159 14.2551 75.9704 14.2464ZM24.2471 0.00372885L22.53 16.2667L19.6003 2.52955L10.4083 4.44908L13.3379 18.1862L0 21.0143L2.32344 32.0204L25.6565 36.9704L31.0103 25.0511L33.5352 1.01015L24.2425 0L24.2471 0.00372885ZM16.873 23.6399C16.6115 23.8239 16.3078 23.939 15.99 23.9744C15.6722 24.0098 15.3506 23.9643 15.0551 23.8423C14.3481 23.6399 14.045 22.8321 14.3481 21.822C14.5505 21.115 15.459 21.0143 15.8629 21.0143C16.0372 20.9986 16.2125 21.0336 16.3675 21.115C16.5887 21.1902 16.7923 21.3096 16.966 21.4659C17.1396 21.6223 17.2797 21.8123 17.3776 22.0244C17.4513 22.3142 17.4431 22.6186 17.354 22.904C17.265 23.1894 17.0984 23.4445 16.873 23.6408V23.6399ZM23.6408 24.3469C23.3377 24.9532 22.3276 25.0539 21.4181 24.5493C21.1768 24.3894 20.9959 24.1532 20.9044 23.8785C20.813 23.6038 20.8162 23.3063 20.9135 23.0336C20.9253 22.769 21.0331 22.5176 21.2167 22.3266C21.3277 22.1553 21.4764 22.0115 21.6515 21.9065C21.8266 21.8014 22.0234 21.7377 22.2268 21.7203C22.5431 21.704 22.8581 21.7699 23.1414 21.9114C23.4246 22.053 23.6664 22.2654 23.8432 22.5281C23.9841 22.8194 24.0398 23.1446 24.004 23.4662C23.9682 23.7878 23.8423 24.0928 23.6408 24.3459V24.3469Z" fill="#8E9097"/>
</svg>
