<svg width="138" height="24" viewBox="0 0 138 24" fill="none" xmlns="http://www.w3.org/2000/svg">
<path d="M74.4658 22.6856C75.8269 22.6304 77.1421 22.1713 78.2486 21.3652C79.3551 20.5592 80.2042 19.4415 80.6908 18.1507C81.1773 16.86 81.28 15.4527 80.986 14.1033C80.692 12.754 80.0143 11.5217 79.0368 10.5592C78.0593 9.59669 76.825 8.94622 75.4867 8.68834C74.1485 8.43046 72.765 8.57651 71.5077 9.1084C70.2505 9.64028 69.1746 10.5346 68.4134 11.6807C67.6522 12.8267 67.2391 14.1742 67.2253 15.556C67.2258 16.5105 67.415 17.4551 67.7818 18.334C68.1485 19.2129 68.6853 20.0083 69.3604 20.6731C70.0355 21.3378 70.8352 21.8584 71.7121 22.2041C72.589 22.5498 73.5254 22.7135 74.4658 22.6856ZM74.4658 10.9472C75.0645 10.9393 75.6588 11.0531 76.2135 11.2819C76.7682 11.5107 77.2722 11.8498 77.6956 12.2794C78.119 12.709 78.4533 13.2202 78.6789 13.783C78.9044 14.3457 79.0166 14.9486 79.0088 15.556C79.0171 16.1667 78.9057 16.7729 78.6811 17.3396C78.4565 17.9062 78.1232 18.4219 77.7005 18.8567C77.2777 19.2915 76.7741 19.6368 76.2187 19.8725C75.6633 20.1081 75.0673 20.2295 74.4653 20.2295C73.8633 20.2295 73.2673 20.1081 72.712 19.8725C72.1566 19.6368 71.6529 19.2915 71.2302 18.8567C70.8075 18.4219 70.4741 17.9062 70.2495 17.3396C70.0249 16.7729 69.9136 16.1667 69.9219 15.556C69.9024 14.9455 70.0067 14.3373 70.2282 13.7693C70.4497 13.2012 70.7837 12.6853 71.2096 12.2535C71.6356 11.8216 72.1443 11.483 72.7044 11.2587C73.2644 11.0343 73.8639 10.9289 74.4658 10.949V10.9472ZM52.8859 22.4697V8.78594H54.5186L62.3271 17.4997V8.78594H64.9577V22.4689H63.3944L55.5834 13.6802V22.4662H52.8859V22.4697ZM87.3861 22.3975L82.2039 8.78594H85.0438L85.115 9.0018L88.2415 17.6441L91.7198 8.78594H93.211V8.85819L96.618 17.6441L99.7445 8.78594H102.584L97.4022 22.4689H95.911L92.3616 13.3225L88.806 22.4697L87.3861 22.3975Z" fill="#8E9097"/>
<path d="M113.935 23.9816V7.70578L100.589 0H107.049L117.13 5.83352V16.2759L133.457 0H138L113.935 23.9816Z" fill="#8E9097"/>
<path d="M26.4078 22.4689V8.78598H36.4169V11.1648H29.0349V14.2618H35.7812V16.5666H29.034V20.0231H36.4882V22.4019L26.4078 22.4742V22.4689ZM0 22.4689V8.78598H9.79641V11.1648H2.55593V14.3367H9.15635V16.7155H2.55593V22.4689H0ZM20.2355 16.8512C21.1141 16.6587 21.9021 16.1689 22.4702 15.4622C23.0383 14.7556 23.3527 13.874 23.362 12.9622C23.362 10.5137 21.3037 8.7851 18.535 8.7851H12.7162V22.4689H15.3425V17.068H17.4008L21.0215 22.4689H24.0029L20.2355 16.8512ZM15.3329 14.6891V11.1648H18.4595C19.8794 11.1648 20.7314 11.8847 20.7314 12.9649C20.7314 14.045 19.8768 14.6891 18.4569 14.6891H15.3329ZM39.54 22.4689V8.78598H49.5492V11.1648H42.0959V14.2618H48.8396V16.5666H42.0959V20.0231H49.55V22.4019L39.5409 22.4742L39.54 22.4689Z" fill="#8E9097"/>
</svg>
