<svg width="121" height="39" viewBox="0 0 121 39" fill="none" xmlns="http://www.w3.org/2000/svg">
<path fill-rule="evenodd" clip-rule="evenodd" d="M0.000365457 25.1842V25.1093C-0.0129125 23.3045 0.335752 21.5154 1.02575 19.8477C1.71575 18.18 2.73308 16.6676 4.0176 15.3998C5.30212 14.132 6.82778 13.1345 8.50437 12.4665C10.181 11.7984 11.9745 11.4732 13.7789 11.5101C17.0315 11.3611 20.241 12.2995 22.901 14.1773C23.2959 14.4643 23.5893 14.8694 23.739 15.3341C23.8887 15.7987 23.887 16.2989 23.734 16.7625C23.581 17.2261 23.2848 17.6291 22.8879 17.9134C22.4911 18.1977 22.0142 18.3486 21.526 18.3443C20.9991 18.3266 20.4914 18.1422 20.0761 17.8175C18.2117 16.4103 15.923 15.6813 13.5882 15.751C12.4091 15.789 11.2491 16.0597 10.175 16.5474C9.1008 17.0351 8.13358 17.7303 7.32887 18.5929C6.52416 19.4555 5.89782 20.4687 5.48583 21.5741C5.07384 22.6795 4.88433 23.8554 4.92817 25.0343V25.1104C4.92817 30.5208 8.55363 34.5027 14.0117 34.5027C16.3172 34.5298 18.5731 33.8333 20.4621 32.5112V27.5902H15.1903C14.9215 27.5984 14.6538 27.5532 14.4026 27.4574C14.1514 27.3616 13.9216 27.217 13.7266 27.032C13.5315 26.847 13.375 26.6251 13.2661 26.3793C13.1572 26.1335 13.098 25.8686 13.092 25.5998C13.1015 25.0523 13.3278 24.5309 13.7211 24.1499C14.1144 23.7689 14.6427 23.5594 15.1903 23.5673H22.6331C22.9427 23.5602 23.2506 23.6153 23.5386 23.7294C23.8265 23.8435 24.0886 24.0142 24.3093 24.2315C24.5299 24.4488 24.7047 24.7083 24.8233 24.9944C24.9418 25.2805 25.0017 25.5875 24.9993 25.8973V32.9222C25.0267 33.5152 24.8875 34.1039 24.5975 34.6218C24.3076 35.1398 23.8784 35.5662 23.3586 35.8528C20.5404 37.7175 17.2354 38.7107 13.8561 38.7084C5.49589 38.7095 0.000365457 32.8507 0.000365457 25.1842ZM29.2084 12.8942C29.2091 12.5957 29.2691 12.3002 29.3849 12.0251C29.5007 11.7499 29.6699 11.5005 29.8829 11.2912C30.0958 11.082 30.3482 10.9171 30.6253 10.8061C30.9025 10.6952 31.1989 10.6404 31.4974 10.6449C31.7981 10.6395 32.0969 10.6934 32.3767 10.8035C32.6565 10.9137 32.9118 11.0779 33.1281 11.2868C33.3444 11.4957 33.5174 11.7452 33.6372 12.021C33.757 12.2968 33.8212 12.5935 33.8262 12.8942V36.1934C33.8128 36.7969 33.5637 37.3712 33.1322 37.7933C32.7006 38.2153 32.121 38.4517 31.5173 38.4517C30.9137 38.4517 30.334 38.2153 29.9025 37.7933C29.4709 37.3712 29.2218 36.7969 29.2084 36.1934V12.8942ZM37.4017 28.4497V28.3736C37.4125 26.9815 37.7011 25.6054 38.2508 24.3263C38.8005 23.0472 39.6001 21.8908 40.6027 20.9248C41.6054 19.9589 42.7908 19.2029 44.0895 18.7013C45.3882 18.1997 46.7741 17.9625 48.1657 18.0037C49.551 17.9552 50.9321 18.1852 52.227 18.6799C53.5219 19.1747 54.7044 19.9243 55.7044 20.8842C56.7045 21.8441 57.5018 22.9949 58.0491 24.2685C58.5965 25.5421 58.8828 26.9125 58.891 28.2987V28.3725C58.875 29.7646 58.5812 31.1396 58.0268 32.4166C57.4725 33.6937 56.6687 34.8473 55.6626 35.8097C54.6566 36.772 53.4685 37.5238 52.1681 38.021C50.8677 38.5182 49.4811 38.7507 48.0896 38.705C46.71 38.7508 45.3352 38.52 44.0462 38.0263C42.7572 37.5326 41.58 36.7859 40.584 35.8302C39.588 34.8745 38.7933 33.7292 38.2468 32.4617C37.7003 31.1941 37.4129 29.83 37.4017 28.4497ZM54.2709 28.4497V28.3736C54.2992 27.5445 54.16 26.7181 53.8618 25.9439C53.5636 25.1697 53.1125 24.4635 52.5354 23.8675C51.9582 23.2715 51.2669 22.7979 50.5027 22.475C49.7384 22.152 48.917 21.9864 48.0873 21.9879C47.2665 21.9767 46.4521 22.1341 45.6945 22.4505C44.937 22.7669 44.2526 23.2355 43.6836 23.8273C43.1146 24.4191 42.6732 25.1214 42.3868 25.8907C42.1003 26.6601 41.975 27.4801 42.0184 28.2998V28.3736C41.9927 29.1973 42.1326 30.0177 42.4297 30.7862C42.7269 31.5548 43.1752 32.256 43.7482 32.8481C44.3212 33.4403 45.0072 33.9115 45.7656 34.2337C46.524 34.556 47.3394 34.7227 48.1634 34.7242C48.9843 34.7408 49.7999 34.5886 50.5595 34.2769C51.3192 33.9653 52.0067 33.501 52.5795 32.9127C53.1522 32.3244 53.598 31.6247 53.8892 30.8569C54.1803 30.0892 54.3107 29.2699 54.2721 28.4497H54.2709ZM70.4203 38.6346H70.1932C69.6023 38.6155 69.0318 38.4137 68.5603 38.0571C68.0888 37.7004 67.7394 37.2064 67.5601 36.643L60.8429 21.502C60.6909 21.1442 60.6004 20.7634 60.5749 20.3756C60.6038 19.788 60.8575 19.234 61.2837 18.8284C61.7098 18.4228 62.2756 18.1966 62.8639 18.1967C63.3742 18.1822 63.875 18.3363 64.2888 18.6351C64.7026 18.934 65.0064 19.361 65.153 19.8499L70.3431 32.9983L75.6115 19.775C75.762 19.3164 76.0532 18.9169 76.4438 18.6333C76.8343 18.3498 77.3044 18.1966 77.787 18.1956C78.079 18.1865 78.3699 18.236 78.6425 18.3414C78.915 18.4468 79.1636 18.6057 79.3736 18.8089C79.5835 19.0121 79.7506 19.2554 79.8648 19.5243C79.979 19.7932 80.0381 20.0823 80.0386 20.3745C80.0276 20.7524 79.937 21.1238 79.7729 21.4645L73.0545 36.6442C72.868 37.2034 72.5164 37.6929 72.0462 38.0484C71.576 38.4039 71.0091 38.6087 70.4203 38.6357V38.6346ZM81.7224 28.4497V28.3736C81.823 25.5975 82.9942 22.968 84.9904 21.0362C86.9867 19.1043 89.6531 18.02 92.4311 18.0105C95.209 18.0009 97.8829 19.0669 99.8923 20.985C101.902 22.9031 103.091 25.5245 103.211 28.2998V28.3736C103.195 29.7658 102.901 31.1407 102.346 32.4178C101.792 33.6949 100.988 34.8484 99.9822 35.8108C98.9762 36.7732 97.7881 37.525 96.4877 38.0222C95.1873 38.5193 93.8007 38.7519 92.4092 38.7061C91.0296 38.7516 89.655 38.5206 88.3661 38.0267C87.0771 37.5328 85.9001 36.786 84.9043 35.8302C83.9084 34.8744 83.1138 33.7291 82.5674 32.4615C82.021 31.194 81.7337 29.83 81.7224 28.4497ZM98.5928 28.4497V28.3736C98.621 27.5445 98.4819 26.7181 98.1837 25.9439C97.8855 25.1697 97.4343 24.4635 96.8572 23.8675C96.2801 23.2715 95.5887 22.7979 94.8245 22.475C94.0603 22.152 93.2388 21.9864 92.4092 21.9879C91.5879 21.9765 90.7731 22.1339 90.0152 22.4505C89.2573 22.767 88.5725 23.2359 88.0034 23.828C87.4342 24.4202 86.9928 25.123 86.7065 25.8928C86.4202 26.6626 86.2952 27.4831 86.3391 28.3032V28.3771C86.3133 29.2007 86.4531 30.0212 86.7501 30.7898C87.0472 31.5585 87.4956 32.2597 88.0686 32.8519C88.6416 33.4441 89.3277 33.9153 90.0862 34.2374C90.8447 34.5596 91.6601 34.7263 92.4841 34.7276C93.3053 34.7442 94.1212 34.5919 94.8811 34.2801C95.641 33.9683 96.3287 33.5036 96.9015 32.9149C97.4743 32.3262 97.92 31.6261 98.2109 30.858C98.5019 30.0899 98.6319 29.2702 98.5928 28.4497Z" fill="#8E9097"/>
<path fill-rule="evenodd" clip-rule="evenodd" d="M110.933 0.000203797C108.547 -0.0152275 106.253 0.915837 104.554 2.58925C102.854 4.26266 101.887 6.54183 101.865 8.92702C101.865 10.8 102.464 12.6239 103.575 14.1319L103.817 14.4612L108.538 21.0206C108.746 21.3117 109.021 21.5482 109.34 21.7095C109.659 21.8709 110.013 21.9524 110.371 21.9471H111.498C111.856 21.9527 112.209 21.8713 112.528 21.7099C112.847 21.5485 113.122 21.3119 113.33 21.0206L118.052 14.4612L118.292 14.1319C119.403 12.6242 120.003 10.8002 120.003 8.92702C119.981 6.54144 119.014 4.26191 117.313 2.58844C115.613 0.914966 113.318 -0.0158313 110.933 0.000203797ZM114.665 11.5635L114.414 11.9098L110.934 16.7445L107.459 11.9189L107.204 11.5681C106.638 10.8033 106.332 9.8773 106.331 8.92589C106.35 7.71775 106.843 6.56551 107.704 5.71786C108.565 4.87021 109.725 4.39511 110.933 4.39511C112.142 4.39511 113.301 4.87021 114.162 5.71786C115.024 6.56551 115.517 7.71775 115.536 8.92589C115.535 9.87512 115.23 10.7992 114.666 11.5624L114.665 11.5635ZM108.383 25.9711V25.9529C108.4 25.2961 108.672 24.6719 109.142 24.2126C109.612 23.7533 110.242 23.4951 110.899 23.4927C111.556 23.4903 112.188 23.744 112.661 24.1999C113.134 24.6558 113.411 25.2781 113.433 25.9348V25.9529C113.429 26.2801 113.36 26.6031 113.23 26.9032C113.099 27.2032 112.91 27.4742 112.674 27.7003C112.437 27.9264 112.158 28.103 111.853 28.2198C111.547 28.3366 111.221 28.3913 110.894 28.3805C110.57 28.3913 110.247 28.3371 109.944 28.2211C109.641 28.1051 109.364 27.9297 109.13 27.7052C108.896 27.4807 108.709 27.2116 108.581 26.9138C108.452 26.616 108.384 26.2955 108.381 25.9711H108.383Z" fill="#8E9097"/>
</svg>
