<svg width="138" height="28" viewBox="0 0 138 28" fill="none" xmlns="http://www.w3.org/2000/svg">
<path d="M107.521 12.908L110.816 5.66135C111.08 5.0019 111.08 5.0019 111.475 5.0019C111.869 5.0019 111.87 5.0019 112.001 5.66135L112.924 12.7767H107.521V12.908ZM116.35 2.89458C115.823 0.127792 115.823 0.127808 111.87 0.127808C108.048 0.127808 108.181 0.127812 106.995 2.36777L98.4302 20.0245C97.2439 22.5285 97.3766 22.7913 100.539 22.7913C103.043 22.7913 102.91 22.7913 103.965 20.5514L105.283 17.5206H113.452L113.847 20.5514C114.111 22.7913 114.243 22.7913 116.747 22.7913C119.513 22.7913 119.777 22.66 119.25 19.8932L116.35 2.89458Z" fill="#8E9097"/>
<path d="M96.8497 4.8778C98.8256 4.8778 98.8257 4.87776 99.2211 2.5064C99.6165 0.13504 99.6165 0.135071 97.7719 0.135071H87.6259C84.0682 0.135071 84.0682 0.135084 83.5414 3.69273L80.906 18.8455C80.2465 22.7986 80.2466 22.7987 83.9368 22.7987H93.8189C95.9275 22.7987 95.7948 22.7986 96.3229 20.4272C96.7183 17.9233 96.7183 17.9233 94.8738 17.9233H86.3094L86.9689 13.5748H94.0842C96.0613 13.5748 96.0613 13.5748 96.3241 11.3349C96.7196 9.09491 96.7196 9.0949 94.0842 9.0949H87.7573L88.4167 5.01043H96.8497V4.8778Z" fill="#8E9097"/>
<path d="M71.9462 0.132615H57.7108C55.7348 0.132615 55.7348 0.132659 55.208 2.50402C54.8126 4.87537 54.8126 4.87534 56.6571 4.87534H61.2684L58.633 19.7642C58.1062 22.6636 58.2376 22.6636 60.873 22.6636C63.2443 22.6636 63.3769 22.6636 63.7724 20.555L66.5391 4.73788H70.8913C72.8673 4.73788 72.8672 4.73784 73.2627 2.36648C73.7895 0.12653 73.7896 0.126526 71.945 0.126526" fill="#8E9097"/>
<path d="M33.0761 0.132629C30.5721 0.132629 30.5721 0.132669 30.1779 2.24122L28.3334 13.1769C27.8065 16.3404 27.0157 18.1837 23.8534 18.1837C20.8226 18.1837 19.769 16.3392 20.1644 13.5724L21.8776 3.16348C22.4044 0.264068 22.273 0.264073 19.6376 0.264073C17.1336 0.264073 17.0022 0.264038 16.7382 2.37259L14.8937 13.3096C13.84 19.5026 17.6605 23.3243 23.0626 23.3243C29.1242 23.3243 32.2865 20.5575 33.2087 14.1005L35.0532 3.29611C35.8441 0.132674 35.7115 0.132629 33.0761 0.132629Z" fill="#8E9097"/>
<path d="M12.1245 0.132597H5.93144C3.95429 0.132597 3.95431 0.13264 3.42748 2.504C3.03205 4.87536 3.03202 4.87533 4.87655 4.87533H8.56558L6.45706 16.8659C5.93023 19.5013 4.7439 21.3459 1.18626 22.3995C0.263995 22.6636 0 23.059 0 23.4532C0.0381976 24.0992 0.21804 24.7289 0.526813 25.2977C1.05365 26.7468 1.44912 27.0108 1.97596 27.0108C2.56457 26.9722 3.14302 26.8386 3.68903 26.6154C8.82839 24.9023 10.8043 21.0819 11.7266 16.3379L14.0979 2.89818C14.6248 0.131393 14.6248 0.131409 12.122 0.131409" fill="#8E9097"/>
<path d="M44.5387 18.0535C46.5147 17.9221 47.5696 17.1312 47.5696 16.0763C47.5696 14.8901 46.1192 14.4947 44.1433 13.9678C40.3216 12.7815 36.8966 11.4638 36.8966 7.37932C36.8966 2.63417 40.8497 0 45.725 0C47.8335 0 50.205 0.131454 51.6541 0.264075C52.9717 0.395479 53.2358 0.922257 52.9718 2.8994C52.5763 5.00795 52.1809 5.13936 50.9946 5.13936C49.5455 5.00796 47.701 4.87536 45.5924 4.87536C43.0885 4.87536 42.2988 5.79761 42.2988 6.71987C42.2988 7.77354 43.2211 8.433 45.5924 8.95983C49.9409 10.2775 52.8391 11.9907 52.8391 15.6797C52.8391 20.0282 49.5455 22.6636 44.2747 22.9264C41.7645 23.0102 39.2516 22.8779 36.764 22.5309C35.0508 22.2681 35.0508 22.2682 35.4463 19.8956C35.8417 17.6557 35.8417 17.5242 37.4222 17.787C39.7839 18.0546 42.1625 18.1424 44.5375 18.0498" fill="#8E9097"/>
<path d="M136.379 0.132615H122.144C120.167 0.132615 120.167 0.132659 119.64 2.50402C119.244 4.87537 119.244 4.87534 121.089 4.87534H125.7L123.065 19.7642C122.538 22.6636 122.669 22.6636 125.305 22.6636C127.676 22.6636 127.809 22.6636 128.204 20.555L130.971 4.73788H135.324C137.302 4.73788 137.301 4.73784 137.697 2.36648C138.224 0.12653 138.224 0.126526 136.379 0.126526" fill="#8E9097"/>
</svg>
